<?xml version="1.0" encoding="UTF-8"?><svg id="Layer_1" xmlns="http://www.w3.org/2000/svg" viewBox="0 0 386.33 91"><defs><style>.cls-1,.cls-2,.cls-3{fill:#fff;}.cls-1,.cls-3{font-family:GillSans-SemiBoldItalic, 'Gill Sans';font-size:68px;font-style:italic;font-weight:600;}.cls-1,.cls-3,.cls-4{isolation:isolate;}.cls-5{stroke-width:6px;}.cls-5,.cls-2,.cls-6{stroke:#fff;stroke-miterlimit:10;}.cls-5,.cls-6{fill:none;}.cls-2,.cls-6{stroke-width:4px;}.cls-3{letter-spacing:-.02em;}.cls-7{stroke-width:10px;}.cls-7,.cls-8{fill:#0d1117;stroke:#0d1117;stroke-linejoin:round;}.cls-8{stroke-width:20px;}</style></defs><path class="cls-8" d="m127.51,30.99l-6.54,46.65h-7.34l2.46-17.07c-1.51.75-2.86,1.31-4.05,1.66s-2.36.53-3.49.53c-2.21,0-4.18-.57-5.91-1.71s-3.05-2.74-3.98-4.8-1.39-4.4-1.39-7.04c0-3.7.89-6.95,2.66-9.76,1.77-2.81,4.24-4.92,7.42-6.34,3.18-1.42,6.93-2.12,11.27-2.12h8.9,0Z"/><path class="cls-8" d="m135.67,31.32h7.27l-2.36,17.07c-.22,1.57-.35,2.6-.38,3.07-.03.48-.05.98-.05,1.51,0,1.13.28,2.05.85,2.77.56.72,1.33,1.08,2.31,1.08s2.17-.46,3.65-1.38c1.48-.92,3.12-2.41,4.91-4.47l2.79-19.66h7.27l-4.28,30.68h-7.3l.7-4.88c-1.79,1.77-3.54,3.12-5.25,4.03-1.7.92-3.44,1.38-5.21,1.38-1.64,0-3.05-.37-4.23-1.11s-2.09-1.76-2.72-3.05-.95-2.81-.95-4.53c0-1.57.15-3.41.46-5.51l2.52-17Z"/><path class="cls-8" d="m177.71,31.32l-4.35,30.68h-7.3l4.28-30.68h7.37Zm1.36-9.1c0,.69-.18,1.33-.53,1.94s-.85,1.1-1.48,1.46-1.3.55-2.01.55-1.37-.18-1.99-.55c-.62-.37-1.1-.85-1.44-1.46-.34-.61-.51-1.26-.51-1.94s.17-1.37.51-1.99c.34-.62.82-1.11,1.43-1.48.61-.37,1.28-.55,2.01-.55s1.41.18,2.04.55,1.12.86,1.46,1.48c.34.62.51,1.28.51,1.99h0Z"/><path class="cls-8" d="m207.43,37.86c-.91-.31-1.82-.54-2.72-.68-.91-.14-2-.22-3.29-.22-2.17,0-4.17.5-5.99,1.51-1.83,1.01-3.29,2.4-4.38,4.17-1.1,1.77-1.64,3.66-1.64,5.68,0,2.61.72,4.64,2.16,6.08,1.44,1.44,3.46,2.16,6.08,2.16,1.5,0,2.87-.18,4.1-.53,1.23-.35,2.69-.94,4.4-1.76l-.83,6.84c-2.88,1.15-5.87,1.73-8.96,1.73-2.83,0-5.35-.6-7.55-1.79-2.2-1.2-3.91-2.91-5.11-5.13-1.21-2.22-1.81-4.75-1.81-7.59,0-3.25.86-6.25,2.57-9,1.71-2.74,4.09-4.9,7.14-6.46,3.04-1.56,6.4-2.34,10.08-2.34,1.08,0,2.24.07,3.45.22,1.22.14,2.3.34,3.25.58l-.93,6.54h-.02Z"/><path class="cls-8" d="m224.69,15.61l-4.15,29.32.13.13,11.92-13.75h9.16l-13.51,14.58,12.65,16.1h-9.2l-11.36-15.37-2.16,15.37h-7.3l6.54-46.38h7.28Z"/><path class="cls-8" d="m260.12,43.11l-1.1,7.4h-18.43l1.03-7.4h18.5Z"/><path class="cls-8" d="m276.42,15.61l-6.51,46.38h-7.37l6.54-46.38s7.34,0,7.34,0Z"/><path class="cls-8" d="m307.5,44.47c0,3.39-.69,6.49-2.06,9.31-1.37,2.82-3.28,5.04-5.73,6.64s-5.13,2.41-8.05,2.41c-2.59,0-4.9-.6-6.94-1.79-2.04-1.2-3.61-2.88-4.71-5.06-1.11-2.18-1.66-4.63-1.66-7.35,0-3.3.71-6.35,2.14-9.16,1.43-2.81,3.38-5,5.86-6.57,2.48-1.57,5.16-2.36,8.04-2.36,2.54,0,4.81.58,6.81,1.73,1.99,1.15,3.54,2.79,4.65,4.93s1.66,4.57,1.66,7.29v-.02Z"/><path class="cls-8" d="m341.17,44.47c0,3.39-.69,6.49-2.06,9.31-1.37,2.82-3.28,5.04-5.73,6.64s-5.13,2.41-8.05,2.41c-2.59,0-4.9-.6-6.94-1.79-2.04-1.2-3.61-2.88-4.71-5.06-1.11-2.18-1.66-4.63-1.66-7.35,0-3.3.71-6.35,2.14-9.16,1.43-2.81,3.38-5,5.86-6.57,2.48-1.57,5.16-2.36,8.04-2.36,2.54,0,4.81.58,6.81,1.73,1.99,1.15,3.54,2.79,4.65,4.93s1.66,4.57,1.66,7.29v-.02Z"/><path class="cls-8" d="m359.26,15.61l-4.15,29.32.13.13,11.92-13.75h9.16l-13.51,14.58,12.65,16.1h-9.2l-11.36-15.37-2.16,15.37h-7.3l6.54-46.38h7.28Z"/><g class="cls-4"><text class="cls-1" transform="translate(95 62)"><tspan x="0" y="0">quic</tspan></text><text class="cls-3" transform="translate(208.85 62)"><tspan x="0" y="0">k</tspan></text><text class="cls-1" transform="translate(240.4 62)"><tspan x="0" y="0">-look</tspan></text></g><rect class="cls-7" x="5" y="5" width="81" height="81"/><polyline class="cls-6" points="78.64 27.09 78.64 12.36 63.91 12.36"/><polyline class="cls-6" points="27.09 12.36 12.36 12.36 12.36 27.09"/><polyline class="cls-6" points="12.36 63.91 12.36 78.64 27.09 78.64"/><polyline class="cls-6" points="63.91 78.64 78.64 78.64 78.64 63.91"/><circle class="cls-2" cx="45.5" cy="45.5" r="3.68"/><rect class="cls-5" x="27.09" y="27.09" width="36.82" height="36.82"/></svg>